<svg width="132" height="131" viewBox="0 0 132 131" fill="none" xmlns="http://www.w3.org/2000/svg">
<circle cx="66.4161" cy="65.5261" r="65.4269" fill="url(#paint0_linear_222_659)"/>
<path fill-rule="evenodd" clip-rule="evenodd" d="M79.9762 82.1387L67.4991 69.6612L55.0221 82.1387C53.873 83.2873 52.0104 83.2873 50.8617 82.1387C49.7131 80.99 49.7127 79.1277 50.861 77.9791L63.3381 65.5002L50.861 53.0227C49.7127 51.8726 49.7131 50.0104 50.8617 48.8617C52.0104 47.713 53.873 47.713 55.0221 48.8602L67.4991 61.3391L79.9762 48.8617C81.1253 47.713 82.9879 47.713 84.1366 48.8617C85.2852 50.0104 85.2856 51.8726 84.1373 53.0213L71.6602 65.5002L84.1373 77.9776C84.8811 78.7199 85.1718 79.804 84.8997 80.8191C84.6276 81.8343 83.8343 82.6283 82.8188 82.8997C81.803 83.1725 80.7196 82.881 79.9762 82.1387Z" fill="#FCFCFC"/>
<defs>
<linearGradient id="paint0_linear_222_659" x1="66.4161" y1="0.0991211" x2="66.4161" y2="130.953" gradientUnits="userSpaceOnUse">
<stop stop-color="#A100FF"/>
<stop offset="1" stop-color="#610099"/>
</linearGradient>
</defs>
</svg>
