<svg width="613" height="375" viewBox="0 0 613 375" fill="none" xmlns="http://www.w3.org/2000/svg">
<path fill-rule="evenodd" clip-rule="evenodd" d="M1 53.3416V27.1708C1 19.9439 3.55508 13.7754 8.66524 8.66524C13.7754 3.55508 19.9439 1 27.1708 1H585.481C592.708 1 598.876 3.55508 603.986 8.66524C609.096 13.7754 611.651 19.9439 611.651 27.1708V293.829C611.651 301.056 609.096 307.225 603.986 312.335C598.876 317.445 592.708 320 585.481 320H27.1708C19.9439 320 13.7754 317.445 8.66524 312.335C3.55508 307.225 1 301.056 1 293.829V53.3416Z" stroke="#242424" stroke-dasharray="4 4"/>
<circle cx="307.416" cy="124.526" r="65.4269" fill="url(#paint0_linear_68_1903)"/>
<path d="M111.734 249.104V223.724H115.082V249.104H111.734ZM120.866 249.104V235.28C120.866 234.584 120.842 233.876 120.794 233.156C120.746 232.436 120.674 231.716 120.578 230.996H123.746L124.106 234.884H123.674C124.154 233.54 124.922 232.508 125.978 231.788C127.034 231.044 128.294 230.672 129.758 230.672C131.246 230.672 132.47 231.032 133.43 231.752C134.39 232.448 135.038 233.552 135.374 235.064H134.834C135.29 233.72 136.094 232.652 137.246 231.86C138.398 231.068 139.742 230.672 141.278 230.672C143.27 230.672 144.77 231.26 145.778 232.436C146.786 233.588 147.29 235.388 147.29 237.836V249.104H144.014V238.016C144.014 236.36 143.726 235.172 143.15 234.452C142.574 233.708 141.662 233.336 140.414 233.336C138.95 233.336 137.798 233.84 136.958 234.848C136.118 235.832 135.698 237.176 135.698 238.88V249.104H132.422V238.016C132.422 236.36 132.134 235.172 131.558 234.452C131.006 233.708 130.094 233.336 128.822 233.336C127.358 233.336 126.206 233.84 125.366 234.848C124.55 235.832 124.142 237.176 124.142 238.88V249.104H120.866ZM152.647 256.88V235.28C152.647 234.584 152.623 233.876 152.575 233.156C152.527 232.436 152.455 231.716 152.359 230.996H155.527L155.923 235.172H155.527C155.887 233.78 156.655 232.688 157.831 231.896C159.007 231.08 160.411 230.672 162.043 230.672C163.651 230.672 165.055 231.044 166.255 231.788C167.455 232.532 168.379 233.612 169.027 235.028C169.699 236.42 170.035 238.088 170.035 240.032C170.035 241.976 169.699 243.656 169.027 245.072C168.379 246.488 167.455 247.568 166.255 248.312C165.055 249.056 163.651 249.428 162.043 249.428C160.435 249.428 159.043 249.032 157.867 248.24C156.715 247.424 155.935 246.332 155.527 244.964H155.923V256.88H152.647ZM161.287 246.836C162.943 246.836 164.263 246.26 165.247 245.108C166.231 243.956 166.723 242.264 166.723 240.032C166.723 237.8 166.231 236.12 165.247 234.992C164.263 233.864 162.943 233.3 161.287 233.3C159.631 233.3 158.311 233.864 157.327 234.992C156.367 236.12 155.887 237.8 155.887 240.032C155.887 242.264 156.367 243.956 157.327 245.108C158.311 246.26 159.631 246.836 161.287 246.836ZM182.076 249.428C180.3 249.428 178.764 249.056 177.468 248.312C176.172 247.544 175.164 246.464 174.444 245.072C173.724 243.656 173.364 241.976 173.364 240.032C173.364 238.112 173.724 236.456 174.444 235.064C175.164 233.648 176.172 232.568 177.468 231.824C178.764 231.056 180.3 230.672 182.076 230.672C183.852 230.672 185.388 231.056 186.684 231.824C188.004 232.568 189.012 233.648 189.708 235.064C190.428 236.456 190.788 238.112 190.788 240.032C190.788 241.976 190.428 243.656 189.708 245.072C189.012 246.464 188.004 247.544 186.684 248.312C185.388 249.056 183.852 249.428 182.076 249.428ZM182.076 246.836C183.708 246.836 185.016 246.26 186 245.108C186.984 243.956 187.476 242.264 187.476 240.032C187.476 237.8 186.984 236.12 186 234.992C185.016 233.864 183.708 233.3 182.076 233.3C180.42 233.3 179.1 233.864 178.116 234.992C177.156 236.12 176.676 237.8 176.676 240.032C176.676 242.264 177.156 243.956 178.116 245.108C179.1 246.26 180.42 246.836 182.076 246.836ZM195.15 249.104V235.424C195.15 234.704 195.126 233.972 195.078 233.228C195.054 232.46 194.994 231.716 194.898 230.996H198.066L198.462 235.532L197.922 235.568C198.162 234.464 198.57 233.552 199.146 232.832C199.746 232.088 200.454 231.548 201.27 231.212C202.11 230.852 202.974 230.672 203.862 230.672C204.246 230.672 204.57 230.684 204.834 230.708C205.098 230.732 205.362 230.792 205.626 230.888L205.554 233.804C205.194 233.66 204.858 233.576 204.546 233.552C204.258 233.504 203.898 233.48 203.466 233.48C202.41 233.48 201.498 233.72 200.73 234.2C199.986 234.68 199.41 235.316 199.002 236.108C198.618 236.9 198.426 237.752 198.426 238.664V249.104H195.15ZM216.263 249.428C214.367 249.428 212.927 248.912 211.943 247.88C210.983 246.824 210.503 245.24 210.503 243.128V233.516H206.975V230.996H210.503V226.136L213.779 225.236V230.996H218.891V233.516H213.779V242.84C213.779 244.232 214.019 245.228 214.499 245.828C215.003 246.404 215.723 246.692 216.659 246.692C217.139 246.692 217.547 246.656 217.883 246.584C218.243 246.488 218.567 246.38 218.855 246.26V248.96C218.495 249.104 218.075 249.212 217.595 249.284C217.139 249.38 216.695 249.428 216.263 249.428ZM229.239 249.428C227.655 249.428 226.263 249.056 225.063 248.312C223.863 247.568 222.927 246.488 222.255 245.072C221.583 243.656 221.247 241.976 221.247 240.032C221.247 238.088 221.583 236.42 222.255 235.028C222.927 233.612 223.863 232.532 225.063 231.788C226.263 231.044 227.655 230.672 229.239 230.672C230.847 230.672 232.239 231.08 233.415 231.896C234.615 232.688 235.407 233.78 235.791 235.172H235.359L235.755 230.996H238.923C238.851 231.716 238.779 232.436 238.707 233.156C238.659 233.876 238.635 234.584 238.635 235.28V249.104H235.359V244.964H235.755C235.371 246.332 234.579 247.424 233.379 248.24C232.203 249.032 230.823 249.428 229.239 249.428ZM229.995 246.836C231.627 246.836 232.935 246.26 233.919 245.108C234.903 243.956 235.395 242.264 235.395 240.032C235.395 237.8 234.903 236.12 233.919 234.992C232.935 233.864 231.627 233.3 229.995 233.3C228.363 233.3 227.043 233.864 226.035 234.992C225.051 236.12 224.559 237.8 224.559 240.032C224.559 242.264 225.051 243.956 226.035 245.108C227.019 246.26 228.339 246.836 229.995 246.836ZM244.088 249.104V235.424C244.088 234.704 244.064 233.972 244.016 233.228C243.992 232.46 243.932 231.716 243.836 230.996H247.004L247.4 235.532L246.86 235.568C247.1 234.464 247.508 233.552 248.084 232.832C248.684 232.088 249.392 231.548 250.208 231.212C251.048 230.852 251.912 230.672 252.8 230.672C253.184 230.672 253.508 230.684 253.772 230.708C254.036 230.732 254.3 230.792 254.564 230.888L254.492 233.804C254.132 233.66 253.796 233.576 253.484 233.552C253.196 233.504 252.836 233.48 252.404 233.48C251.348 233.48 250.436 233.72 249.668 234.2C248.924 234.68 248.348 235.316 247.94 236.108C247.556 236.9 247.364 237.752 247.364 238.664V249.104H244.088ZM266.94 249.104V235.28C266.94 234.584 266.916 233.876 266.868 233.156C266.82 232.436 266.748 231.716 266.652 230.996H269.82L270.18 234.884H269.748C270.3 233.516 271.152 232.472 272.304 231.752C273.456 231.032 274.8 230.672 276.336 230.672C278.472 230.672 280.08 231.26 281.16 232.436C282.24 233.588 282.78 235.388 282.78 237.836V249.104H279.504V238.016C279.504 236.36 279.18 235.172 278.532 234.452C277.884 233.708 276.876 233.336 275.508 233.336C273.876 233.336 272.58 233.828 271.62 234.812C270.684 235.796 270.216 237.128 270.216 238.808V249.104H266.94ZM295.772 249.428C293.996 249.428 292.46 249.056 291.164 248.312C289.868 247.544 288.86 246.464 288.14 245.072C287.42 243.656 287.06 241.976 287.06 240.032C287.06 238.112 287.42 236.456 288.14 235.064C288.86 233.648 289.868 232.568 291.164 231.824C292.46 231.056 293.996 230.672 295.772 230.672C297.548 230.672 299.084 231.056 300.38 231.824C301.7 232.568 302.708 233.648 303.404 235.064C304.124 236.456 304.484 238.112 304.484 240.032C304.484 241.976 304.124 243.656 303.404 245.072C302.708 246.464 301.7 247.544 300.38 248.312C299.084 249.056 297.548 249.428 295.772 249.428ZM295.772 246.836C297.404 246.836 298.712 246.26 299.696 245.108C300.68 243.956 301.172 242.264 301.172 240.032C301.172 237.8 300.68 236.12 299.696 234.992C298.712 233.864 297.404 233.3 295.772 233.3C294.116 233.3 292.796 233.864 291.812 234.992C290.852 236.12 290.372 237.8 290.372 240.032C290.372 242.264 290.852 243.956 291.812 245.108C292.796 246.26 294.116 246.836 295.772 246.836ZM313.929 249.104L306.189 230.996H309.717L316.017 246.548H315.009L321.417 230.996H324.765L316.989 249.104H313.929ZM335.182 249.428C333.406 249.428 331.87 249.056 330.574 248.312C329.278 247.544 328.27 246.464 327.55 245.072C326.83 243.656 326.47 241.976 326.47 240.032C326.47 238.112 326.83 236.456 327.55 235.064C328.27 233.648 329.278 232.568 330.574 231.824C331.87 231.056 333.406 230.672 335.182 230.672C336.958 230.672 338.494 231.056 339.79 231.824C341.11 232.568 342.118 233.648 342.814 235.064C343.534 236.456 343.894 238.112 343.894 240.032C343.894 241.976 343.534 243.656 342.814 245.072C342.118 246.464 341.11 247.544 339.79 248.312C338.494 249.056 336.958 249.428 335.182 249.428ZM335.182 246.836C336.814 246.836 338.122 246.26 339.106 245.108C340.09 243.956 340.582 242.264 340.582 240.032C340.582 237.8 340.09 236.12 339.106 234.992C338.122 233.864 336.814 233.3 335.182 233.3C333.526 233.3 332.206 233.864 331.222 234.992C330.262 236.12 329.782 237.8 329.782 240.032C329.782 242.264 330.262 243.956 331.222 245.108C332.206 246.26 333.526 246.836 335.182 246.836ZM365.56 249.428C363.76 249.428 362.2 249.056 360.88 248.312C359.56 247.544 358.528 246.452 357.784 245.036C357.064 243.596 356.704 241.892 356.704 239.924C356.704 237.98 357.076 236.324 357.82 234.956C358.564 233.564 359.596 232.508 360.916 231.788C362.236 231.044 363.784 230.672 365.56 230.672C366.736 230.672 367.876 230.876 368.98 231.284C370.084 231.668 370.984 232.232 371.68 232.976L370.564 235.28C369.868 234.608 369.1 234.116 368.26 233.804C367.42 233.468 366.592 233.3 365.776 233.3C364 233.3 362.608 233.876 361.6 235.028C360.592 236.156 360.088 237.8 360.088 239.96C360.088 242.144 360.592 243.824 361.6 245C362.608 246.176 364 246.764 365.776 246.764C366.568 246.764 367.384 246.608 368.224 246.296C369.064 245.984 369.844 245.492 370.564 244.82L371.68 247.088C370.96 247.856 370.036 248.444 368.908 248.852C367.804 249.236 366.688 249.428 365.56 249.428ZM382.123 249.428C379.939 249.428 378.295 248.84 377.191 247.664C376.111 246.488 375.571 244.676 375.571 242.228V230.996H378.847V242.156C378.847 243.74 379.171 244.904 379.819 245.648C380.467 246.392 381.475 246.764 382.843 246.764C384.331 246.764 385.531 246.272 386.443 245.288C387.379 244.28 387.847 242.948 387.847 241.292V230.996H391.123V249.104H387.955V245.108H388.423C387.919 246.476 387.115 247.544 386.011 248.312C384.907 249.056 383.611 249.428 382.123 249.428ZM396.596 249.104V235.424C396.596 234.704 396.572 233.972 396.524 233.228C396.5 232.46 396.44 231.716 396.344 230.996H399.512L399.908 235.532L399.368 235.568C399.608 234.464 400.016 233.552 400.592 232.832C401.192 232.088 401.9 231.548 402.716 231.212C403.556 230.852 404.42 230.672 405.308 230.672C405.692 230.672 406.016 230.684 406.28 230.708C406.544 230.732 406.808 230.792 407.072 230.888L407 233.804C406.64 233.66 406.304 233.576 405.992 233.552C405.704 233.504 405.344 233.48 404.912 233.48C403.856 233.48 402.944 233.72 402.176 234.2C401.432 234.68 400.856 235.316 400.448 236.108C400.064 236.9 399.872 237.752 399.872 238.664V249.104H396.596ZM409.92 249.104V235.424C409.92 234.704 409.896 233.972 409.848 233.228C409.824 232.46 409.764 231.716 409.668 230.996H412.836L413.232 235.532L412.692 235.568C412.932 234.464 413.34 233.552 413.916 232.832C414.516 232.088 415.224 231.548 416.04 231.212C416.88 230.852 417.744 230.672 418.632 230.672C419.016 230.672 419.34 230.684 419.604 230.708C419.868 230.732 420.132 230.792 420.396 230.888L420.324 233.804C419.964 233.66 419.628 233.576 419.316 233.552C419.028 233.504 418.668 233.48 418.236 233.48C417.18 233.48 416.268 233.72 415.5 234.2C414.756 234.68 414.18 235.316 413.772 236.108C413.388 236.9 413.196 237.752 413.196 238.664V249.104H409.92ZM423.28 249.104V230.996H426.556V249.104H423.28ZM423.784 229.232L427.492 221.96H430.912L426.088 229.232H423.784ZM439.81 249.428C438.01 249.428 436.45 249.056 435.13 248.312C433.81 247.544 432.778 246.452 432.034 245.036C431.314 243.596 430.954 241.892 430.954 239.924C430.954 237.98 431.326 236.324 432.07 234.956C432.814 233.564 433.846 232.508 435.166 231.788C436.486 231.044 438.034 230.672 439.81 230.672C440.986 230.672 442.126 230.876 443.23 231.284C444.334 231.668 445.234 232.232 445.93 232.976L444.814 235.28C444.118 234.608 443.35 234.116 442.51 233.804C441.67 233.468 440.842 233.3 440.026 233.3C438.25 233.3 436.858 233.876 435.85 235.028C434.842 236.156 434.338 237.8 434.338 239.96C434.338 242.144 434.842 243.824 435.85 245C436.858 246.176 438.25 246.764 440.026 246.764C440.818 246.764 441.634 246.608 442.474 246.296C443.314 245.984 444.094 245.492 444.814 244.82L445.93 247.088C445.21 247.856 444.286 248.444 443.158 248.852C442.054 249.236 440.938 249.428 439.81 249.428ZM456.373 249.428C454.189 249.428 452.545 248.84 451.441 247.664C450.361 246.488 449.821 244.676 449.821 242.228V230.996H453.097V242.156C453.097 243.74 453.421 244.904 454.069 245.648C454.717 246.392 455.725 246.764 457.093 246.764C458.581 246.764 459.781 246.272 460.693 245.288C461.629 244.28 462.097 242.948 462.097 241.292V230.996H465.373V249.104H462.205V245.108H462.673C462.169 246.476 461.365 247.544 460.261 248.312C459.157 249.056 457.861 249.428 456.373 249.428ZM470.882 249.104V222.608H474.158V249.104H470.882ZM487.268 249.428C485.492 249.428 483.956 249.056 482.66 248.312C481.364 247.544 480.356 246.464 479.636 245.072C478.916 243.656 478.556 241.976 478.556 240.032C478.556 238.112 478.916 236.456 479.636 235.064C480.356 233.648 481.364 232.568 482.66 231.824C483.956 231.056 485.492 230.672 487.268 230.672C489.044 230.672 490.58 231.056 491.876 231.824C493.196 232.568 494.204 233.648 494.9 235.064C495.62 236.456 495.98 238.112 495.98 240.032C495.98 241.976 495.62 243.656 494.9 245.072C494.204 246.464 493.196 247.544 491.876 248.312C490.58 249.056 489.044 249.428 487.268 249.428ZM487.268 246.836C488.9 246.836 490.208 246.26 491.192 245.108C492.176 243.956 492.668 242.264 492.668 240.032C492.668 237.8 492.176 236.12 491.192 234.992C490.208 233.864 488.9 233.3 487.268 233.3C485.612 233.3 484.292 233.864 483.308 234.992C482.348 236.12 481.868 237.8 481.868 240.032C481.868 242.264 482.348 243.956 483.308 245.108C484.292 246.26 485.612 246.836 487.268 246.836Z" fill="#FCFCFC"/>
<path d="M186.064 364V347.08H187.792L198.4 361.096H197.824V347.08H199.912V364H198.208L187.6 349.984H188.152V364H186.064ZM208.865 364.216C207.681 364.216 206.657 363.968 205.793 363.472C204.929 362.96 204.257 362.24 203.777 361.312C203.297 360.368 203.057 359.248 203.057 357.952C203.057 356.672 203.297 355.568 203.777 354.64C204.257 353.696 204.929 352.976 205.793 352.48C206.657 351.968 207.681 351.712 208.865 351.712C210.049 351.712 211.073 351.968 211.937 352.48C212.817 352.976 213.489 353.696 213.953 354.64C214.433 355.568 214.673 356.672 214.673 357.952C214.673 359.248 214.433 360.368 213.953 361.312C213.489 362.24 212.817 362.96 211.937 363.472C211.073 363.968 210.049 364.216 208.865 364.216ZM208.865 362.488C209.953 362.488 210.825 362.104 211.481 361.336C212.137 360.568 212.465 359.44 212.465 357.952C212.465 356.464 212.137 355.344 211.481 354.592C210.825 353.84 209.953 353.464 208.865 353.464C207.761 353.464 206.881 353.84 206.225 354.592C205.585 355.344 205.265 356.464 205.265 357.952C205.265 359.44 205.585 360.568 206.225 361.336C206.881 362.104 207.761 362.488 208.865 362.488ZM224.605 364V353.608H222.253V351.928H225.205L224.605 352.48V350.536C224.605 349.128 224.957 348.064 225.661 347.344C226.365 346.608 227.389 346.24 228.733 346.24C229.053 346.24 229.389 346.264 229.741 346.312C230.109 346.36 230.413 346.44 230.653 346.552V348.328C230.461 348.248 230.221 348.184 229.933 348.136C229.645 348.088 229.365 348.064 229.093 348.064C228.613 348.064 228.197 348.16 227.845 348.352C227.493 348.544 227.229 348.832 227.053 349.216C226.877 349.584 226.789 350.072 226.789 350.68V352.384L226.453 351.928H230.125V353.608H226.789V364H224.605ZM236.967 364.216C235.783 364.216 234.759 363.968 233.895 363.472C233.031 362.96 232.359 362.24 231.879 361.312C231.399 360.368 231.159 359.248 231.159 357.952C231.159 356.672 231.399 355.568 231.879 354.64C232.359 353.696 233.031 352.976 233.895 352.48C234.759 351.968 235.783 351.712 236.967 351.712C238.151 351.712 239.175 351.968 240.039 352.48C240.919 352.976 241.591 353.696 242.055 354.64C242.535 355.568 242.775 356.672 242.775 357.952C242.775 359.248 242.535 360.368 242.055 361.312C241.591 362.24 240.919 362.96 240.039 363.472C239.175 363.968 238.151 364.216 236.967 364.216ZM236.967 362.488C238.055 362.488 238.927 362.104 239.583 361.336C240.239 360.568 240.567 359.44 240.567 357.952C240.567 356.464 240.239 355.344 239.583 354.592C238.927 353.84 238.055 353.464 236.967 353.464C235.863 353.464 234.983 353.84 234.327 354.592C233.687 355.344 233.367 356.464 233.367 357.952C233.367 359.44 233.687 360.568 234.327 361.336C234.983 362.104 235.863 362.488 236.967 362.488ZM245.683 364V354.88C245.683 354.4 245.667 353.912 245.635 353.416C245.619 352.904 245.579 352.408 245.515 351.928H247.627L247.891 354.952L247.531 354.976C247.691 354.24 247.963 353.632 248.347 353.152C248.747 352.656 249.219 352.296 249.763 352.072C250.323 351.832 250.899 351.712 251.491 351.712C251.747 351.712 251.963 351.72 252.139 351.736C252.315 351.752 252.491 351.792 252.667 351.856L252.619 353.8C252.379 353.704 252.155 353.648 251.947 353.632C251.755 353.6 251.515 353.584 251.227 353.584C250.523 353.584 249.915 353.744 249.403 354.064C248.907 354.384 248.523 354.808 248.251 355.336C247.995 355.864 247.867 356.432 247.867 357.04V364H245.683ZM254.59 364V354.784C254.59 354.32 254.574 353.848 254.542 353.368C254.51 352.888 254.462 352.408 254.398 351.928H256.51L256.75 354.52H256.462C256.782 353.624 257.294 352.936 257.998 352.456C258.702 351.96 259.542 351.712 260.518 351.712C261.51 351.712 262.326 351.952 262.966 352.432C263.606 352.896 264.038 353.632 264.262 354.64H263.902C264.206 353.744 264.742 353.032 265.51 352.504C266.278 351.976 267.174 351.712 268.198 351.712C269.526 351.712 270.526 352.104 271.198 352.888C271.87 353.656 272.206 354.856 272.206 356.488V364H270.022V356.608C270.022 355.504 269.83 354.712 269.446 354.232C269.062 353.736 268.454 353.488 267.622 353.488C266.646 353.488 265.878 353.824 265.318 354.496C264.758 355.152 264.478 356.048 264.478 357.184V364H262.294V356.608C262.294 355.504 262.102 354.712 261.718 354.232C261.35 353.736 260.742 353.488 259.894 353.488C258.918 353.488 258.15 353.824 257.59 354.496C257.046 355.152 256.774 356.048 256.774 357.184V364H254.59ZM280.385 364.216C279.329 364.216 278.401 363.968 277.601 363.472C276.801 362.976 276.177 362.256 275.729 361.312C275.281 360.368 275.057 359.248 275.057 357.952C275.057 356.656 275.281 355.544 275.729 354.616C276.177 353.672 276.801 352.952 277.601 352.456C278.401 351.96 279.329 351.712 280.385 351.712C281.457 351.712 282.385 351.984 283.169 352.528C283.969 353.056 284.497 353.784 284.753 354.712H284.465L284.729 351.928H286.841C286.793 352.408 286.745 352.888 286.697 353.368C286.665 353.848 286.649 354.32 286.649 354.784V364H284.465V361.24H284.729C284.473 362.152 283.945 362.88 283.145 363.424C282.361 363.952 281.441 364.216 280.385 364.216ZM280.889 362.488C281.977 362.488 282.849 362.104 283.505 361.336C284.161 360.568 284.489 359.44 284.489 357.952C284.489 356.464 284.161 355.344 283.505 354.592C282.849 353.84 281.977 353.464 280.889 353.464C279.801 353.464 278.921 353.84 278.249 354.592C277.593 355.344 277.265 356.464 277.265 357.952C277.265 359.44 277.593 360.568 278.249 361.336C278.905 362.104 279.785 362.488 280.889 362.488ZM294.82 364.216C293.556 364.216 292.596 363.872 291.94 363.184C291.3 362.48 290.98 361.424 290.98 360.016V353.608H288.628V351.928H290.98V348.688L293.164 348.088V351.928H296.572V353.608H293.164V359.824C293.164 360.752 293.324 361.416 293.644 361.816C293.98 362.2 294.46 362.392 295.084 362.392C295.404 362.392 295.676 362.368 295.9 362.32C296.14 362.256 296.356 362.184 296.548 362.104V363.904C296.308 364 296.028 364.072 295.708 364.12C295.404 364.184 295.108 364.216 294.82 364.216ZM303.834 364.216C302.65 364.216 301.626 363.968 300.762 363.472C299.898 362.96 299.226 362.24 298.746 361.312C298.266 360.368 298.026 359.248 298.026 357.952C298.026 356.672 298.266 355.568 298.746 354.64C299.226 353.696 299.898 352.976 300.762 352.48C301.626 351.968 302.65 351.712 303.834 351.712C305.018 351.712 306.042 351.968 306.906 352.48C307.786 352.976 308.458 353.696 308.922 354.64C309.402 355.568 309.642 356.672 309.642 357.952C309.642 359.248 309.402 360.368 308.922 361.312C308.458 362.24 307.786 362.96 306.906 363.472C306.042 363.968 305.018 364.216 303.834 364.216ZM303.834 362.488C304.922 362.488 305.794 362.104 306.45 361.336C307.106 360.568 307.434 359.44 307.434 357.952C307.434 356.464 307.106 355.344 306.45 354.592C305.794 353.84 304.922 353.464 303.834 353.464C302.73 353.464 301.85 353.84 301.194 354.592C300.554 355.344 300.234 356.464 300.234 357.952C300.234 359.44 300.554 360.568 301.194 361.336C301.85 362.104 302.73 362.488 303.834 362.488ZM318.542 364V361.336H321.206V364H318.542ZM324.504 369.184V354.784C324.504 354.32 324.488 353.848 324.456 353.368C324.424 352.888 324.376 352.408 324.312 351.928H326.424L326.688 354.712H326.424C326.664 353.784 327.176 353.056 327.96 352.528C328.744 351.984 329.68 351.712 330.768 351.712C331.84 351.712 332.776 351.96 333.576 352.456C334.376 352.952 334.992 353.672 335.424 354.616C335.872 355.544 336.096 356.656 336.096 357.952C336.096 359.248 335.872 360.368 335.424 361.312C334.992 362.256 334.376 362.976 333.576 363.472C332.776 363.968 331.84 364.216 330.768 364.216C329.696 364.216 328.768 363.952 327.984 363.424C327.216 362.88 326.696 362.152 326.424 361.24H326.688V369.184H324.504ZM330.264 362.488C331.368 362.488 332.248 362.104 332.904 361.336C333.56 360.568 333.888 359.44 333.888 357.952C333.888 356.464 333.56 355.344 332.904 354.592C332.248 353.84 331.368 353.464 330.264 353.464C329.16 353.464 328.28 353.84 327.624 354.592C326.984 355.344 326.664 356.464 326.664 357.952C326.664 359.44 326.984 360.568 327.624 361.336C328.28 362.104 329.16 362.488 330.264 362.488ZM343.643 364.216C342.587 364.216 341.659 363.968 340.859 363.472C340.059 362.976 339.435 362.256 338.987 361.312C338.539 360.368 338.315 359.248 338.315 357.952C338.315 356.656 338.539 355.544 338.987 354.616C339.435 353.672 340.059 352.952 340.859 352.456C341.659 351.96 342.587 351.712 343.643 351.712C344.699 351.712 345.619 351.976 346.403 352.504C347.203 353.032 347.739 353.76 348.011 354.688H347.723V346.336H349.907V364H347.747V361.192H348.011C347.755 362.136 347.227 362.88 346.427 363.424C345.643 363.952 344.715 364.216 343.643 364.216ZM344.147 362.488C345.235 362.488 346.107 362.104 346.763 361.336C347.435 360.568 347.771 359.44 347.771 357.952C347.771 356.464 347.435 355.344 346.763 354.592C346.107 353.84 345.235 353.464 344.147 353.464C343.059 353.464 342.179 353.84 341.507 354.592C340.851 355.344 340.523 356.464 340.523 357.952C340.523 359.44 340.851 360.568 341.507 361.336C342.179 362.104 343.059 362.488 344.147 362.488ZM354.238 364V353.608H351.886V351.928H354.838L354.238 352.48V350.536C354.238 349.128 354.59 348.064 355.294 347.344C355.998 346.608 357.022 346.24 358.366 346.24C358.686 346.24 359.022 346.264 359.374 346.312C359.742 346.36 360.046 346.44 360.286 346.552V348.328C360.094 348.248 359.854 348.184 359.566 348.136C359.278 348.088 358.998 348.064 358.726 348.064C358.246 348.064 357.83 348.16 357.478 348.352C357.126 348.544 356.862 348.832 356.686 349.216C356.51 349.584 356.422 350.072 356.422 350.68V352.384L356.086 351.928H359.758V353.608H356.422V364H354.238ZM373.256 364.216C372.072 364.216 371.048 363.968 370.184 363.472C369.32 362.96 368.648 362.24 368.168 361.312C367.688 360.368 367.448 359.248 367.448 357.952C367.448 356.672 367.688 355.568 368.168 354.64C368.648 353.696 369.32 352.976 370.184 352.48C371.048 351.968 372.072 351.712 373.256 351.712C374.44 351.712 375.464 351.968 376.328 352.48C377.208 352.976 377.88 353.696 378.344 354.64C378.824 355.568 379.064 356.672 379.064 357.952C379.064 359.248 378.824 360.368 378.344 361.312C377.88 362.24 377.208 362.96 376.328 363.472C375.464 363.968 374.44 364.216 373.256 364.216ZM373.256 362.488C374.344 362.488 375.216 362.104 375.872 361.336C376.528 360.568 376.856 359.44 376.856 357.952C376.856 356.464 376.528 355.344 375.872 354.592C375.216 353.84 374.344 353.464 373.256 353.464C372.152 353.464 371.272 353.84 370.616 354.592C369.976 355.344 369.656 356.464 369.656 357.952C369.656 359.44 369.976 360.568 370.616 361.336C371.272 362.104 372.152 362.488 373.256 362.488ZM386.292 364.216C384.836 364.216 383.74 363.824 383.004 363.04C382.284 362.256 381.924 361.048 381.924 359.416V351.928H384.108V359.368C384.108 360.424 384.324 361.2 384.756 361.696C385.188 362.192 385.86 362.44 386.772 362.44C387.764 362.44 388.564 362.112 389.172 361.456C389.796 360.784 390.108 359.896 390.108 358.792V351.928H392.292V364H390.18V361.336H390.492C390.156 362.248 389.62 362.96 388.884 363.472C388.148 363.968 387.284 364.216 386.292 364.216ZM401.933 364V361.336H404.597V364H401.933ZM411.68 364.216C410.416 364.216 409.456 363.872 408.8 363.184C408.16 362.48 407.84 361.424 407.84 360.016V353.608H405.488V351.928H407.84V348.688L410.024 348.088V351.928H413.432V353.608H410.024V359.824C410.024 360.752 410.184 361.416 410.504 361.816C410.84 362.2 411.32 362.392 411.944 362.392C412.264 362.392 412.536 362.368 412.76 362.32C413 362.256 413.216 362.184 413.408 362.104V363.904C413.168 364 412.888 364.072 412.568 364.12C412.264 364.184 411.968 364.216 411.68 364.216ZM414.277 364L419.749 357.232V358.312L414.589 351.928H417.205L420.973 356.752H420.181L423.949 351.928H426.541L421.453 358.264V357.28L426.853 364H424.213L420.181 358.84H420.973L416.893 364H414.277ZM433.383 364.216C432.119 364.216 431.159 363.872 430.503 363.184C429.863 362.48 429.543 361.424 429.543 360.016V353.608H427.191V351.928H429.543V348.688L431.727 348.088V351.928H435.135V353.608H431.727V359.824C431.727 360.752 431.887 361.416 432.207 361.816C432.543 362.2 433.023 362.392 433.647 362.392C433.967 362.392 434.239 362.368 434.463 362.32C434.703 362.256 434.919 362.184 435.111 362.104V363.904C434.871 364 434.591 364.072 434.271 364.12C433.967 364.184 433.671 364.216 433.383 364.216Z" fill="#FCFCFC" fill-opacity="0.5"/>
<path fill-rule="evenodd" clip-rule="evenodd" d="M295.509 147.534C289.794 147.729 284.996 143.269 284.773 137.556V127.17C284.995 121.456 289.794 116.996 295.509 117.191L297.642 117.192C298.404 117.192 299.109 117.599 299.49 118.259C299.871 118.919 299.871 119.732 299.49 120.392C299.109 121.052 298.404 121.459 297.642 121.459H295.509C292.234 121.344 289.483 123.9 289.356 127.174V137.56C289.484 140.834 292.234 143.389 295.509 143.277L321.008 143.278C324.283 143.389 327.033 140.834 327.161 137.56V127.155C327.035 123.893 324.296 121.347 321.034 121.459H318.875C318.113 121.459 317.409 121.052 317.028 120.392C316.646 119.732 316.646 118.919 317.028 118.259C317.409 117.599 318.113 117.192 318.875 117.192H321.034C326.735 116.999 331.521 121.448 331.742 127.149V137.554C331.52 143.267 326.723 147.727 321.009 147.532L295.509 147.534ZM305.963 132.627V110.012L303.189 112.593C302.261 113.4 300.879 113.4 299.951 112.593C299.524 112.21 299.28 111.663 299.28 111.089C299.28 110.516 299.524 109.969 299.951 109.585L306.631 103.347C307.574 102.574 308.932 102.574 309.876 103.347L316.556 109.583C316.981 109.968 317.224 110.515 317.224 111.088C317.224 111.662 316.981 112.208 316.556 112.593C315.634 113.424 314.234 113.424 313.313 112.593L310.539 110.012V132.627H305.963Z" fill="#FCFCFC"/>
<defs>
<linearGradient id="paint0_linear_68_1903" x1="307.416" y1="59.0991" x2="307.416" y2="189.953" gradientUnits="userSpaceOnUse">
<stop stop-color="#A100FF"/>
<stop offset="1" stop-color="#610099"/>
</linearGradient>
</defs>
</svg>
