<svg width="24" height="24" viewBox="0 0 24 24" fill="none" xmlns="http://www.w3.org/2000/svg">
<circle cx="12" cy="12" r="12" fill="#EA3A3D"/>
<path fill-rule="evenodd" clip-rule="evenodd" d="M14.121 15.5342L12 13.4131L9.87903 15.5342C9.48676 15.9141 8.8623 15.9092 8.47626 15.5229C8.09015 15.1367 8.08514 14.5127 8.46503 14.1201L10.586 11.999L8.46503 9.87793C8.08514 9.48535 8.09015 8.86133 8.47626 8.4751C8.8623 8.08887 9.48676 8.08398 9.87903 8.46387L12 10.585L14.121 8.46387C14.5132 8.08398 15.1377 8.08887 15.5237 8.4751C15.9099 8.86133 15.9149 9.48535 15.535 9.87793L13.414 12L15.535 14.1211C15.7944 14.3721 15.8983 14.7437 15.8066 15.0928C15.7151 15.4424 15.4423 15.7148 15.093 15.8066C14.7438 15.8984 14.3723 15.7944 14.121 15.5352L14.121 15.5342Z" fill="white"/>
</svg>
