<svg width="630" height="33" viewBox="0 0 630 33" fill="none" xmlns="http://www.w3.org/2000/svg">
<path fill-rule="evenodd" clip-rule="evenodd" d="M18.3727 20.7998H15.4772C14.6777 20.7998 13.9952 20.5264 13.4298 19.9797C12.8645 19.433 12.5818 18.773 12.5818 17.9998C12.5818 17.2266 12.8645 16.5666 13.4298 16.0199C13.9952 15.4732 14.6777 15.1998 15.4772 15.1998L305.021 15.1998C305.82 15.1998 306.503 15.4732 307.068 16.0199C307.633 16.5666 307.916 17.2266 307.916 17.9998C307.916 18.773 307.633 19.433 307.068 19.9797C306.503 20.5264 305.82 20.7998 305.021 20.7998L18.3727 20.7998Z" fill="#A100FF"/>
<path fill-rule="evenodd" clip-rule="evenodd" d="M310.654 21H307.647C306.817 21 306.108 20.7071 305.521 20.1213C304.933 19.5355 304.64 18.8284 304.64 18C304.64 17.1716 304.933 16.4645 305.521 15.8787C306.108 15.2929 306.817 15 307.647 15L608.361 15C609.191 15 609.9 15.2929 610.487 15.8787C611.074 16.4645 611.368 17.1716 611.368 18C611.368 18.8284 611.074 19.5355 610.487 20.1213C609.9 20.7071 609.191 21 608.361 21L310.654 21Z" fill="#A100FF"/>
<ellipse cx="15.477" cy="18.0007" rx="11.2" ry="11.5817" transform="rotate(-90 15.477 18.0007)" fill="url(#paint0_linear_68_1879)"/>
<ellipse cx="15.4772" cy="18" rx="14" ry="14.4772" transform="rotate(-90 15.4772 18)" stroke="url(#paint1_linear_68_1879)" stroke-width="2" stroke-linejoin="round"/>
<ellipse cx="157.353" cy="18.0007" rx="11.2" ry="11.5817" transform="rotate(-90 157.353 18.0007)" fill="#03000D"/>
<ellipse cx="157.353" cy="18" rx="14" ry="14.4772" transform="rotate(-90 157.353 18)" stroke="url(#paint2_linear_68_1879)" stroke-width="2" stroke-linejoin="round"/>
<ellipse cx="305.021" cy="18.0007" rx="11.2" ry="11.5817" transform="rotate(-90 305.021 18.0007)" fill="#03000D"/>
<ellipse cx="305.02" cy="18" rx="14" ry="14.4772" transform="rotate(-90 305.02 18)" stroke="url(#paint3_linear_68_1879)" stroke-width="2" stroke-linejoin="round"/>
<ellipse cx="475.569" cy="18.0007" rx="11.2" ry="11.5817" transform="rotate(-90 475.569 18.0007)" fill="#03000D"/>
<ellipse cx="475.569" cy="18" rx="14" ry="14.4772" transform="rotate(-90 475.569 18)" stroke="url(#paint4_linear_68_1879)" stroke-width="2" stroke-linejoin="round"/>
<ellipse cx="614.523" cy="15.0007" rx="11.2" ry="11.5817" transform="rotate(-90 614.523 15.0007)" fill="#03000D"/>
<ellipse cx="614.523" cy="15" rx="14" ry="14.4772" transform="rotate(-90 614.523 15)" stroke="url(#paint5_linear_68_1879)" stroke-width="2" stroke-linejoin="round"/>
<defs>
<linearGradient id="paint0_linear_68_1879" x1="26.677" y1="18.0007" x2="4.27699" y2="18.0007" gradientUnits="userSpaceOnUse">
<stop stop-color="#610099"/>
<stop offset="1" stop-color="#200033"/>
</linearGradient>
<linearGradient id="paint1_linear_68_1879" x1="15.4772" y1="3.52282" x2="15.4772" y2="32.4772" gradientUnits="userSpaceOnUse">
<stop stop-color="#A100FF"/>
<stop offset="1" stop-color="#610099"/>
</linearGradient>
<linearGradient id="paint2_linear_68_1879" x1="157.353" y1="3.52282" x2="157.353" y2="32.4772" gradientUnits="userSpaceOnUse">
<stop stop-color="#A100FF"/>
<stop offset="1" stop-color="#610099"/>
</linearGradient>
<linearGradient id="paint3_linear_68_1879" x1="305.02" y1="3.52282" x2="305.02" y2="32.4772" gradientUnits="userSpaceOnUse">
<stop stop-color="#A100FF"/>
<stop offset="1" stop-color="#610099"/>
</linearGradient>
<linearGradient id="paint4_linear_68_1879" x1="475.569" y1="3.52282" x2="475.569" y2="32.4772" gradientUnits="userSpaceOnUse">
<stop stop-color="#A100FF"/>
<stop offset="1" stop-color="#610099"/>
</linearGradient>
<linearGradient id="paint5_linear_68_1879" x1="614.523" y1="0.52282" x2="614.523" y2="29.4772" gradientUnits="userSpaceOnUse">
<stop stop-color="#A100FF"/>
<stop offset="1" stop-color="#610099"/>
</linearGradient>
</defs>
</svg>
