<svg width="24" height="24" viewBox="0 0 24 24" fill="none" xmlns="http://www.w3.org/2000/svg">
<circle cx="12" cy="12" r="12" fill="#1AD598"/>
<path fill-rule="evenodd" clip-rule="evenodd" d="M16.832 7C16.5317 7.01221 16.2494 7.146 16.05 7.37109C14.2501 9.31396 12.608 11.2202 10.8801 13.1221L8.84906 11.3662C8.61804 11.1641 8.31171 11.0688 8.00653 11.1055C7.70129 11.1416 7.42596 11.3062 7.24908 11.5576C6.85699 12.0923 6.93347 12.8369 7.42609 13.2812L10.2691 15.7314C10.7146 16.1216 11.392 16.0791 11.7851 15.6357C13.8301 13.4272 15.6621 11.2583 17.6601 9.1001C18.1083 8.61133 18.1147 7.86328 17.6751 7.36719C17.4612 7.12744 17.1532 6.99316 16.832 7Z" fill="white"/>
</svg>
